<?xml version="1.0" encoding="UTF-8"?>
<svg xmlns="http://www.w3.org/2000/svg" width="412" height="416" viewBox="0 0 412 416" version="1.1">
  <g id="chain_broken" fill="#FF3B30">
    <path d="M 73 202 L 66 206 L 15 257 L 9 265 L 4 277 L 2 292 L 5 313 L 12 332 L 23 351 L 33 364 L 57 387 L 73 398 L 87 405 L 101 410 L 116 413 L 137 412 L 150 407 L 158 401 L 267 295 L 229 295 L 133 381 L 121 383 L 102 378 L 78 364 L 55 342 L 43 325 L 36 310 L 33 299 L 33 287 L 36 280 L 90 226 L 92 222 L 92 213 L 90 208 L 84 203 Z"/>
    <path d="M 275 3 L 263 8 L 255 14 L 173 92 L 204 97 L 273 39 L 282 33 L 292 32 L 303 34 L 331 48 L 340 55 L 358 73 L 364 81 L 374 98 L 380 117 L 380 128 L 376 136 L 322 190 L 321 203 L 323 207 L 332 213 L 339 213 L 344 211 L 404 150 L 410 133 L 410 112 L 407 99 L 399 79 L 385 57 L 361 32 L 340 17 L 313 5 L 299 2 Z"/>
    <path d="M 124 140 L 110 154 L 104 165 L 101 180 L 102 197 L 109 220 L 123 245 L 143 268 L 161 283 L 177 293 L 186 296 L 192 295 L 196 293 L 201 287 L 202 277 L 200 272 L 195 267 L 185 262 L 174 254 L 160 241 L 145 222 L 136 205 L 132 191 L 133 176 L 150 154 L 160 138 Z"/>
    <path d="M 217 113 L 211 119 L 209 124 L 209 130 L 211 135 L 216 140 L 233 150 L 251 166 L 266 185 L 275 202 L 279 216 L 278 232 L 249 264 L 292 259 L 301 248 L 306 238 L 309 226 L 309 210 L 303 189 L 295 173 L 288 162 L 274 145 L 254 127 L 232 113 L 229 112 Z"/>
    <path d="M 178 129 L 178 131 L 177 132 L 177 134 L 176 135 L 176 137 L 175 138 L 175 140 L 174 141 L 174 143 L 173 144 L 173 146 L 172 147 L 172 149 L 171 150 L 171 152 L 170 153 L 170 155 L 168 159 L 173 159 L 174 158 L 184 158 L 185 157 L 195 157 L 196 156 L 203 156 L 203 155 L 184 135 L 184 134 L 179 129 Z"/>
    <path d="M 159 77 L 157 78 L 151 84 L 150 84 L 144 90 L 143 90 L 137 96 L 136 96 L 140 99 L 147 102 L 149 104 L 163 111 L 163 108 L 162 107 L 162 100 L 161 99 L 161 92 L 160 91 L 160 84 L 159 83 Z"/>
    <path d="M 226 251 L 226 253 L 225 254 L 224 259 L 222 262 L 222 264 L 221 265 L 221 267 L 220 268 L 218 276 L 216 279 L 215 284 L 216 283 L 220 283 L 221 282 L 224 282 L 225 281 L 229 281 L 230 280 L 234 280 L 235 279 L 242 278 L 240 273 L 238 271 L 237 268 L 235 266 L 234 263 L 232 261 L 231 258 Z"/>
    <path d="M 286 272 L 287 272 L 290 275 L 291 275 L 293 277 L 300 281 L 303 284 L 310 288 L 313 291 L 315 290 L 315 286 L 316 285 L 316 281 L 317 280 L 318 272 Z"/>
    <path d="M 104 119 L 104 120 L 138 120 L 134 117 L 131 116 L 129 114 L 126 113 L 121 109 L 113 105 L 111 103 L 109 107 L 109 109 Z"/>
    <path d="M 282 293 L 282 295 L 272 314 L 291 314 L 289 311 L 289 309 L 286 304 L 286 302 L 283 297 Z"/>
  </g>
</svg>